<?xml version="1.0" standalone="no"?>
<!DOCTYPE svg PUBLIC "-//W3C//DTD SVG 1.1//EN" "http://www.w3.org/Graphics/SVG/1.1/DTD/svg11.dtd" >
<!--
2013-9-30: Created.
-->
<svg>
<metadata>
Created by iconfont
</metadata>
<defs>

<font id="iconfont" horiz-adv-x="1024" >
  <font-face
    font-family="iconfont"
    font-weight="500"
    font-stretch="normal"
    units-per-em="1024"
    ascent="896"
    descent="-128"
  />
    <missing-glyph />
    
    <glyph glyph-name="sousuo" unicode="&#58927;" d="M727.934492 201.31630800000005c60.046584 67.008136 96.571453 155.563008 96.571453 252.643044 0 209.079876-169.492252 378.595664-378.595664 378.595664-209.102389 0-378.598734-169.515788-378.598734-378.595664 0-209.128995 169.495322-378.64376 378.598734-378.64376 95.078449 0 181.976588 35.056424 248.504794 92.963275l230.230592-230.251058 33.287127 33.286104L727.934492 201.31630800000005zM445.911304 122.14208399999995c-182.943612 0-331.772242 148.872632-331.772242 331.817268 0 182.89654 148.827607 331.814198 331.772242 331.814198 182.941566 0 331.769173-148.917658 331.769173-331.814198C777.680477 271.01573900000005 628.85287 122.14208399999995 445.911304 122.14208399999995z"  horiz-adv-x="1024" />

    
    <glyph glyph-name="shezhi" unicode="&#59015;" d="M962.496 447.04c-3.584 19.84-22.656 39.808-42.304 44.288l-14.72 3.392c-34.624 10.432-65.536 33.536-84.992 67.328-19.648 33.984-24.128 72.576-15.616 107.968 0 0 0 0 0 0l4.288 13.824c5.952 19.264-1.792 45.76-17.216 58.816 0 0-13.824 11.712-52.992 34.304-39.168 22.592-56.128 28.736-56.128 28.736-19.008 6.848-45.76 0.32-59.52-14.464L612.928 780.16C586.56 755.328 551.104 740.096 512 740.096c-39.232 0-74.88 15.36-101.248 40.384L400.832 791.168C387.136 805.952 360.32 812.48 341.312 805.6320000000001c0 0-17.024-6.144-56.256-28.736C245.952 754.304 232.128 742.656 232.128 742.656 216.768 729.6 209.024 703.168 214.976 683.84l4.288-14.016c8.448-35.328 3.904-73.856-15.68-107.776C184 528.1279999999999 152.896 504.96 118.08 494.592L103.808 491.328c-19.648-4.48-38.72-24.448-42.304-44.288 0 0-3.2-17.792-3.2-63.04 0-45.248 3.2-62.976 3.2-62.976 3.584-19.84 22.656-39.808 42.304-44.288l13.952-3.2c0 0 0 0 0 0 34.944-10.304 66.112-33.536 85.824-67.584 19.648-33.984 24.128-72.576 15.616-107.968 0 0 0 0 0 0l-4.224-13.76c-5.952-19.264 1.792-45.76 17.216-58.816 0 0 13.824-11.712 52.992-34.304 39.168-22.592 56.128-28.736 56.128-28.736 19.008-6.848 45.76-0.32 59.52 14.464l9.792 10.56c26.432 25.024 62.08 40.448 101.376 40.448 39.296 0 75.008-15.424 101.44-40.512 0 0 0 0 0.064 0l9.728-10.496c13.76-14.784 40.512-21.312 59.52-14.464 0 0 17.024 6.144 56.256 28.736 39.168 22.592 52.928 34.304 52.928 34.304 15.424 13.056 23.168 39.488 17.216 58.816l-4.352 14.208c-8.32 35.264-3.84 73.664 15.744 107.52 19.648 34.048 50.88 57.216 85.824 67.584 0 0 0 0.064 0 0.064l13.952 3.2c19.648 4.48 38.72 24.448 42.304 44.288 0 0 3.2 17.792 3.2 63.04C965.696 429.248 962.496 447.04 962.496 447.04zM512 203.072c-99.904 0-180.928 81.024-180.928 180.928S412.096 564.864 512 564.864s180.928-81.024 180.928-180.928S611.904 203.072 512 203.072z"  horiz-adv-x="1024" />

    
    <glyph glyph-name="xin" unicode="&#58944;" d="M700.856275 740.457458c-74.768891 0-144.295384-72.696696-190.046381-127.260405C465.073224 667.773042 395.563104 740.457458 320.754305 740.457458c-134.789892 0-244.443291-105.780185-244.443291-235.799424 0-77.56968 39.277562-131.98808 70.844511-175.712931 91.752704-126.998439 322.464249-285.038872 332.234777-291.701618 9.410324-6.414083 20.424168-9.629311 31.401174-9.629311 11.005658 0 21.998013 3.215228 31.397081 9.629311 9.782807 6.662747 240.514819 164.703179 332.23887 291.701618 31.586392 43.723827 70.873164 98.143251 70.873164 175.712931C945.299567 634.678296 835.645145 740.457458 700.856275 740.457458L700.856275 740.457458zM700.856275 740.457458"  horiz-adv-x="1024" />

    
    <glyph glyph-name="icon_reply" unicode="&#58889;" d="M415.937331 576L415.937331 800 20.001331 457.824C-6.718669 434.72-6.622669 397.216 20.033331 374.17600000000004L415.937331 32 415.937331 256C639.937331 256 847.937331 208 1023.937331-32 943.937331 416 607.937331 576 415.937331 576"  horiz-adv-x="1025" />

    
    <glyph glyph-name="pinglun" unicode="&#59295;" d="M512 102.30399999999997c-23.998 0-49.5 2.094-76.5 6.296l-183.599-174.6v236.697c-58.799 33.602-105.153 76.5-139.053 128.703-33.899 52.199-50.849 108.598-50.849 169.199 0 66.002 20.101 127.05 60.303 183.151 40.196 56.101 94.798 100.498 163.796 133.197 69.003 32.701 144.299 49.053 225.901 49.053 81.602 0 156.898-16.352 225.901-49.053 68.998-32.699 123.601-77.098 163.796-133.197 40.202-56.101 60.303-117.299 60.303-183.599 0-66.301-20.101-127.503-60.303-183.599-40.196-56.102-94.799-100.503-163.797-133.204-69.002-32.699-144.298-49.045-225.9-49.045v0zM275.303 552.303c-19.803 0-36.603-8.105-50.401-24.303-13.799-16.197-20.704-36-20.704-59.401 0-23.401 6.904-43.347 20.704-59.849 13.798-16.502 30.599-24.75 50.401-24.75 19.796 0 36.597 8.248 50.395 24.75 13.804 16.502 20.704 36.447 20.704 59.849 0 23.401-6.899 43.204-20.704 59.401-13.798 16.197-30.599 24.303-50.395 24.303v0zM512 552.303c-19.803 0-36.602-8.105-50.401-24.303-13.798-16.197-20.697-36-20.697-59.401 0-23.401 6.899-43.347 20.697-59.849 13.799-16.502 30.599-24.75 50.401-24.75 19.803 0 36.602 8.248 50.401 24.75s20.697 36.447 20.697 59.849c0 23.401-6.899 43.204-20.697 59.401s-30.599 24.303-50.401 24.303v0zM748.697 552.303c-19.797 0-36.597-8.105-50.396-24.303-13.804-16.197-20.703-36-20.703-59.401 0-23.401 6.899-43.347 20.703-59.849 13.799-16.502 30.599-24.75 50.396-24.75 19.803 0 36.602 8.248 50.401 24.75s20.703 36.447 20.703 59.849c0 23.401-6.904 43.204-20.703 59.401s-30.599 24.303-50.401 24.303v0zM748.697 552.303z"  horiz-adv-x="1024" />

    
    <glyph glyph-name="shanchu" unicode="&#58909;" d="M873.88385963 563.97672903l-34.09521664-645.90665159c-1.25394603-23.72716885-20.85601735-42.32561778-44.62160782-42.32561778L228.83296483-124.25554034000004c-23.76559047 0-43.36766179 18.59844893-44.62160782 42.32561778l-34.09521664 645.90665159c-1.29818851 24.64346909 17.62393429 45.67529472 42.26623944 46.9781413 24.75756999 1.19456654 45.67995165-17.62859122 46.97814129-42.26623943l31.85860608-603.58103381 481.56291186 0 31.85860608 603.58103381c1.30866745 24.64812601 22.48253781 43.38396274 46.9781413 42.26623943C856.25992533 609.6508598099999 875.18204814 588.62019811 873.88385963 563.97672903zM992.3299237 713.52926435c0-24.67606983-20.00608142-44.68215125-44.68215125-44.68215125L76.35222755 668.8471131c-24.67606983 0-44.68215125 20.00608142-44.68215125 44.68215125s20.00608142 44.68215125 44.68215125 44.68215126l245.75008541 0L322.10231296 858.74480014c0 21.59418027 14.40000114 33.51190414 35.99301746 33.51190415l307.79886137 0c21.59418027 0 36.00349639-11.91772387 36.00349639-33.51190415l0-100.53454961 245.7500854 0C972.32384227 758.21025166 992.3299237 738.2041691 992.3299237 713.52926435zM400.29520441 758.21025166l223.40959232 0L623.70479559 814.06264889 400.29520441 814.06264889 400.29520441 758.21025166zM419.02987605 32.130242560000056c0.31203101 0 0.62173411 0 0.93842205 0 21.58835939 0 38.67089579 20.76753123 38.16442766 42.35472555l-11.36119125 482.94958762c-0.50763321 21.58952334-18.21073863 39.22626446-40.00750706 38.751232-21.58835939-0.50763321-38.67089579-18.12574549-38.16442766-39.71410375l11.36119125-483.97067491C380.46260224 51.22933874 397.8618277 32.130242560000056 419.02987605 32.130242560000056zM603.26093938 32.130242560000056c21.16339143 0 38.56843776 17.95343019 39.07024896 39.22510051l11.36119125 482.30573284c0.50763321 21.58835939-16.57606827 39.76184035-38.16442766 40.26947243-21.92600405 0.31668793-39.50103779-16.44916053-40.00750706-38.03286187l-11.36119125-482.76912242c-0.50763321-21.58952334 16.57606827-40.99832149 38.16442766-40.99832149C602.64037035 32.130242560000056 602.95123627 32.130242560000056 603.26093938 32.130242560000056z"  horiz-adv-x="1024" />

    
    <glyph glyph-name="zan1" unicode="&#58904;" d="M868.354104 328.881658c56.047504 0 84.071767 168.143535 0 168.143535L700.206476 497.025193c168.147628 280.242635 46.413076 336.290139 0 336.290139 0-142.373615-209.370495-301.023938-420.36293-364.314403L279.843546 20.619875999999977l-56.047504 0L223.796042 469.006046l56.047504 0 0 28.02938L167.749562 497.035426c-30.828123 0-56.047504-37.83777-56.047504-84.076884l0-336.291163c0-46.239114 25.219381-84.070744 56.047504-84.070744l112.095008 0 0 28.018124c238.850923-24.823362 155.578358-84.070744 392.338666-84.070744 56.047504 0 112.095008 28.02324 112.095008 84.070744 56.05262 0 84.076884 140.119271 56.05262 140.119271C896.378367 160.73402999999996 932.281065 328.881658 868.354104 328.881658L868.354104 328.881658zM868.354104 328.881658"  horiz-adv-x="1024" />

    
    <glyph glyph-name="zhaoxiang1" unicode="&#58918;" d="M111.312593 589.330963c0 20.897185 17.066667 37.925926 37.925926 37.925926h989.221925c20.897185 0 37.925926-17.028741 37.925926-37.925926v-597.333333c0-20.859259-17.028741-37.925926-37.925926-37.925926H149.238519c-20.859259 0-37.925926 17.066667-37.925926 37.925926V589.330963z m385.441185 196.152889c75.169185 34.019556 223.876741 34.512593 289.374815 0.83437 17.559704-9.02637 51.503407-45.018074 83.816296-83.209481H419.119407c31.175111 40.580741 62.577778 75.58637 77.596445 82.375111zM149.238519-121.780148h989.221925c62.729481 0 113.777778 51.048296 113.777778 113.777778V589.330963c0 62.729481-51.048296 113.777778-113.777778 113.777778h-170.894222c-30.340741 39.253333-101.906963 127.582815-146.773333 150.641778-94.170074 48.469333-268.401778 40.201481-355.365926 0.83437-45.776593-20.745481-109.681778-107.178667-140.325926-151.476148H149.238519c-62.729481 0-113.777778-51.048296-113.777778-113.777778v-597.333333c0-62.729481 51.048296-113.777778 113.777778-113.777778zM642.275556 491.33037c104.561778 0 189.62963-85.029926 189.629629-189.629629 0-104.523852-85.067852-189.62963-189.629629-189.62963s-189.62963 85.105778-189.62963 189.62963c0 104.599704 85.067852 189.62963 189.62963 189.629629m0-455.111111c146.394074 0 265.481481 119.087407 265.481481 265.481482s-119.087407 265.481481-265.481481 265.481481-265.481481-119.087407-265.481482-265.481481 119.087407-265.481481 265.481482-265.481482"  horiz-adv-x="1289" />

    
    <glyph glyph-name="biaoqian" unicode="&#59127;" d="M963.75757531 383.38787906000005c33.58545469-38.58787875 33.94303031-76.10424281 1.07151563-112.54909125L617.53454563-78.59757562000004c-15.00606094-12.14787844-32.15636344-17.50787906-51.44969719-16.07878782-19.294545 1.42909125-34.30181812 7.50303-45.02060625 18.22181813-86.46545437 86.46666656-163.64242406 163.99999969-231.52969688 232.60121156l-85.75151531 85.75151531c-27.86909062 27.86909062-52.70060625 52.87999969-74.49575719 75.03272719-21.79515188 22.1527275-39.66060562 40.19636344-53.59515187 54.13090969-13.93454531 13.93333312-21.25939406 21.6157575-21.97333313 23.04484781-2.1442425 2.85939375-5.8957575 8.03878781-11.254545 15.54303094C37.10424219 417.15393938 34.42424281 426.26424281 34.42424281 436.98303V501.29697c0 16.43515125 0.17818219 35.01575719 0.53575688 55.73939344 0.35757562 20.72363625 0.53575781 41.80363594 0.53575781 63.24242437 0.71515125 50.02181812 1.42909125 105.76000031 2.1442425 167.21575781 0.71393906 0 1.07151469 0.35757562 1.07151469 1.07151469a517.8 517.8 0 0 0 4.82303062 26.79757594c1.78666687 8.57575781 6.60969656 16.79272687 14.47030313 24.65454562C65.151515 847.87636406 73.36969719 853.23636375 82.65939406 856.0957575c9.28969688 2.85818156 17.86545469 4.28606063 25.72484813 4.28606063H462.10909062c1.43030344 0 4.64484844-0.17818219 9.64727344-0.53454563 5.00242406-0.35757562 8.57575781-0.89333344 10.71878719-1.60848469 8.57575781-3.57333375 16.43515125-8.21818219 23.58303094-13.9357575L963.75757531 383.38787906000005zM197.35272687 629.92484813c19.294545 0 35.72969719 6.96727313 49.30666688 20.90303062 13.57818188 13.93333312 20.36606062 30.54909094 20.36606062 49.84363594 0 19.29333375-6.78787875 35.728485-20.36606062 49.30666687-13.57696969 13.57696969-30.01212094 20.36606062-49.30666688 20.36606063s-35.72969719-6.78909094-49.30666593-20.36606063c-13.57818188-13.57818188-20.36606062-30.01333312-20.36606063-49.30666687 0-19.294545 6.78787875-35.90787844 20.36606063-49.84363594 13.5757575-13.9357575 30.01212094-20.90303062 49.30666593-20.90303062z"  horiz-adv-x="1024" />

    
    <glyph glyph-name="xie" unicode="&#58897;" d="M870.48752128 384c-23.89916786 0-44.81093973-20.91177187-44.81093973-44.81093973v-227.04209693c0-71.69750471-14.93697991-86.63448462-89.62188061-86.63448462h89.62188061v83.64708864-83.64708864H108.70153899h89.62187946c-68.71010873 0-86.63448462 14.93697991-89.62187946 68.71010873V694.6891855700001v-41.8235449c0 68.71010873 11.94958393 86.63448462 77.67229554 89.62188061h591.50441016c26.88656384 0 47.79833571 20.91177187 47.79833686 44.81093973s-20.91177187 44.81093973-44.81094088 44.81094088H102.72674589C57.91580615 829.1220059 19.07965838 790.28585699 19.07965838 742.48752128v-719.96243854c2.98739598-47.79833571 41.82354375-86.63448462 89.62188061-86.63448463H825.67658155c50.7857317 0 89.62188061 38.83614777 89.62187946 89.62188061V339.18906027c0 26.88656384-20.91177187 44.81093973-44.81093973 44.81093973zM108.70153899 742.48752128h26.88656384H108.70153899z m878.29442674-14.93697991c-23.89916786 23.89916786-62.73531677 23.89916786-89.62188061 0L395.49155555 219.69321983999998c-23.89916786-23.89916786-23.89916786-62.73531677 0-89.62188061 23.89916786-23.89916786 62.73531677-23.89916786 89.62188061 0l501.88252957 507.85732154c23.89916786 23.89916786 23.89916786 65.72271275 0 89.6218806z"  horiz-adv-x="1024" />

    
    <glyph glyph-name="qiehuan" unicode="&#58913;" d="M96 480h832c0.32 0 0.576 0.192 0.896 0.192a30.656 30.656 0 0 1 30.976 30.976C959.808 511.424 960 511.68 960 512a31.424 31.424 0 0 1-14.912 26.368l-188.48 188.48a30.72 30.72 0 1 1-43.456-43.456L852.544 544H96a32 32 0 0 1 0-64zM928 288h-832c-0.32 0-0.576-0.192-0.896-0.192a30.528 30.528 0 0 1-30.976-30.976C64.192 256.576 64 256.32000000000005 64 256c0-11.264 6.144-20.672 14.912-26.368l188.48-188.48a30.72 30.72 0 1 1 43.456 43.456L171.456 224H928a32 32 0 0 1 0 64z"  horiz-adv-x="1024" />

    
    <glyph glyph-name="biaoqian1" unicode="&#58899;" d="M848.175-91.628l-304.626 234.766-304.625-234.766v950.196h609.249v-950.196z"  horiz-adv-x="1024" />

    
    <glyph glyph-name="portait" unicode="&#58915;" d="M97.767132-123.91217600000004c0 1.362608 12.263473 45.647372 27.252163 98.107785 30.658683 106.964737 45.647372 144.43646 63.361277 155.337325 6.131737 4.087824 48.372588 19.757818 93.338656 35.427811 83.119095 27.933466 132.854291 51.097804 149.205589 68.81171 6.131737 6.131737 10.219561 21.120426 11.582169 40.878244 2.725216 29.977379 2.043912 31.339987-18.39521 56.548236-11.582169 14.307385-25.889554 39.515635-32.02129 55.866933-6.131737 16.351297-12.944777 29.977379-15.669994 29.977379-13.626081 0-32.021291 79.031271-19.757817 86.525615 2.043912 1.362608 2.043912 15.669993-0.681304 32.021291-6.131737 38.834331 2.725216 94.01996 19.757817 116.502994 6.813041 8.856953 16.351297 25.20825 21.120426 36.109115 23.164338 49.053892 66.086494 61.317365 149.205589 44.284764 36.790419-7.494345 70.174318-7.494345 86.525615 0 11.582169 5.450432 24.526946-26.570858 24.526946-58.592149 0-14.307385 3.40652-37.471723 8.175649-50.4165 6.131737-18.39521 7.494345-34.746507 5.450433-70.855623-1.362608-26.570858-0.681304-47.691284 2.043912-49.735196 13.626081-8.856953-2.725216-77.668663-21.120426-87.206919-5.450432-2.725216-9.538257-8.856953-9.538257-13.626081 0-14.307385-18.39521-50.4165-38.153027-73.580839-17.713906-21.80173-18.39521-23.164338-14.988689-53.141716 5.450432-51.097804 27.933466-66.767798 163.512974-113.096474 124.678643-42.240852 114.459082-29.977379 153.974717-198.940785 10.900865-47.00998 19.757818-87.206919 19.757818-88.569528 0-1.362608-185.996008-2.725216-414.232868-2.725216-227.555556 2.043912-414.232868 2.725216-414.232868 4.087824z m0 0"  horiz-adv-x="1024" />

    
    <glyph glyph-name="denglu1" unicode="&#58902;" d="M508.341333 255.68l97.834667 97.834667a42.666667 42.666667 0 0 1 0 60.341333l-97.834667 97.824a32 32 0 0 1-45.248 0c-12.490667-12.490667-12.490667-31.424 0-43.914667l53.408-52.085333H117.333333a32 32 0 1 1 0-64h393.845334l-48.085334-49.418667c-12.490667-12.501333-12.490667-33.418667 0-45.92 12.48-12.501333 32.757333-13.152 45.248-0.661333zM245.333333 554.666667a32 32 0 0 1 32 32V704a42.666667 42.666667 0 0 0 42.666667 42.666667h512a42.666667 42.666667 0 0 0 42.666667-42.666667v-640a42.666667 42.666667 0 0 0-42.666667-42.666667H320a42.666667 42.666667 0 0 0-42.666667 42.666667V181.333333a32 32 0 1 1-64 0v-138.666666a85.333333 85.333333 0 0 1 85.333334-85.333334h554.666666a85.333333 85.333333 0 0 1 85.333334 85.333334V725.333333a85.333333 85.333333 0 0 1-85.333334 85.333334H298.666667a85.333333 85.333333 0 0 1-85.333334-85.333334v-138.666666a32 32 0 0 1 32-32z"  horiz-adv-x="1024" />

    
    <glyph glyph-name="tuichu" unicode="&#58959;" d="M512-127.57388400000002A464.807623 464.807623 0 0 0 238.433357 715.838043a43.080355 43.080355 0 0 0 59.656277-9.630228 42.18551 42.18551 0 0 0-9.800674-59.059715 383.50464 383.50464 0 1 1 447.42208 0 42.18551 42.18551 0 0 0-9.800674 59.059715 42.95252 42.95252 0 0 0 59.656277 9.630228A464.850235 464.850235 0 0 0 512-127.57388400000002z m0 600.227373a42.611627 42.611627 0 0 0-42.611627 42.313346V853.430985a42.611627 42.611627 0 0 0 85.223254 0v-338.46415a42.611627 42.611627 0 0 0-42.611627-42.142899z"  horiz-adv-x="1024" />

    
    <glyph glyph-name="xing" unicode="&#59038;" d="M1052.044 514.643c-9.15 26.392-32.536 45.65-60.73 49.878L716.867 605.35 597.521 853.06C584.985 879.103 558.113 895.768 528.533 895.768c-29.482 0-56.353-16.665-68.939-42.694L340.265 605.3330000000001 65.767 564.52c-28.21-4.228-51.596-23.486-60.73-49.878a72.621 72.621 0 0 1 17.739-75.314L223.86 238.37699999999995 177.185-40.25c-4.658-28.06 7.482-56.254 31.298-72.67a77.279 77.279 0 0 1 43.883-13.56 77.852 77.852 0 0 1 36.831 9.249l239.286 128.858 239.385-128.858a77.973 77.973 0 0 1 80.714 4.327c23.783 16.4 35.906 44.56 31.2 72.67l-46.626 278.628 201.25 200.935a73.001 73.001 0 0 1 17.638 75.314z"  horiz-adv-x="1057" />

    
    <glyph glyph-name="zhifeiji" unicode="&#59349;" d="M982.40284445 863.3837037c12.01493333-8.61677037 16.74808889-20.26761482 14.56355555-34.58844445L858.24853333-3.390577779999944c-1.82044445-10.43721482-7.64586667-18.56853333-17.3549037-24.39395555-4.97588148-2.79134815-10.67994075-4.36906667-16.74808888-4.36906667-4.00497778 0-8.37404445 0.9709037-12.98583705 2.79134815L565.76379259 70.88355554999998 434.57042963-89.07282963c-6.5536-8.37404445-15.4130963-12.37902222-26.57848888-12.37902222-4.61179259 0-8.61677037 0.72817778-12.01493334 2.18453333-6.79632592 2.54862222-12.37902222 6.67496297-16.50536296 12.74311111-4.12634075 5.94678518-6.31087408 12.50038518-6.31087408 19.78216296V122.22008889000006l468.09694815 573.80408889-579.14405927-501.22903703-213.9629037 87.74542222c-13.34992592 4.97588148-20.6317037 14.92764445-21.6026074 29.85528888-0.72817778 14.44219259 4.97588148 25.12213333 17.3549037 32.03982223L945.38714075 864.59733333c5.46133333 3.2768 11.16539259 4.85451852 17.3549037 4.85451852 7.28177778 0 13.83537778-2.06317037 19.6608-6.06814815z"  horiz-adv-x="1024" />

    
    <glyph glyph-name="weixin1" unicode="&#58912;" d="M659.46875 517.6875c9.1875 0 18.375 0 27.5625-1.5C661.0625 634.125 535.34375 721.5 391.25 721.5 230.375 721.5 98.5625 611.15625 98.5625 473.25c0-79.6875 42.9375-147.09375 116.4375-197.71875l-29.15625-87.375L288.5 238.6875c36.75-7.6875 65.90625-15.28125 102.65625-15.28125 9.1875 0 18.375 0 29.15625 1.5-6.09375 19.96875-9.1875 39.84375-9.1875 61.3125 0.09375 127.21875 108.9375 231.46875 248.34375 231.46875z m-157.875 79.6875c22.96875 0 36.75-15.28125 36.75-36.75 0-21.46875-15.28125-36.75-36.75-36.75-22.96875 0-44.4375 15.375-44.4375 36.75 0 22.96875 23.0625 36.75 44.4375 36.75z m-202.78125-68.53125c-23.15625 0-44.8125 15.1875-44.8125 36.375 0 22.78125 23.15625 36.375 44.8125 36.375s37.03125-15.1875 37.03125-36.375c0.09375-21.28125-15.375-36.375-37.03125-36.375zM926.1875 289.3125c0 118.03125-116.4375 213-248.25 213-139.5 0-249.84375-96.5625-249.84375-213 0-118.03125 110.34375-213 249.84375-213 29.15625 0 58.21875 7.6875 87.375 15.28125l79.6875-44.4375-21.46875 73.59375c58.21875 44.4375 102.65625 102.65625 102.65625 168.5625z m-329.53125 36.75c-13.78125 0-29.15625 13.78125-29.15625 29.15625 0 13.78125 15.28125 29.15625 29.15625 29.15625 21.46875 0 36.75-15.28125 36.75-29.15625 0-15.375-13.78125-29.15625-36.75-29.15625z m166.875 7.125c-13.875 0-29.34375 13.6875-29.34375 28.78125 0 13.6875 15.46875 28.78125 29.34375 28.78125 21.65625 0 37.03125-15.1875 37.03125-28.78125 0-15.1875-15.375-28.78125-37.03125-28.78125z"  horiz-adv-x="1024" />

    
    <glyph glyph-name="shuxie-copy" unicode="&#59350;" d="M851.5625672 748.12772503c0 50.39378583-37.01343786 91.54974698-82.64332325 91.54974698h-642.50523497c-45.56774756 0-82.64332325-40.94883461-82.64332325-91.44618432v-728.46257538c0-50.66305021 36.99272605-91.4461831 82.64332325-91.44618432h642.50523497c45.56774756 0 82.64332325 40.99025942 82.64332325 91.54974698v120.17457682a62.13783703 62.13783703 0 0 1-62.13783703-62.13783704v-58.0574528c0-17.52287005-10.70842098-29.39119692-20.50548622-29.39119693h-642.50523497c-9.90062911 0-20.50548622 11.72333819-20.50548622 29.30834729v728.46257538c0 17.48144523 10.70842098 29.30834606 20.50548622 29.30834729h642.50523497c9.73492739 0 20.50548622-11.93046471 20.50548622-29.41190995v-147.88805214a62.13783703 62.13783703 0 0 1 62.13783703-62.13783704V748.12772503zM209.47158409 611.83873539l455.67747201 0 0-62.13783703-455.67747201 0 0 62.13783703ZM209.47158409 425.42522429l289.97657242 0 0-62.13783704-289.97657242 0 0 62.13783704ZM209.47158409 239.01171317l289.97657242 0 0-62.13783703-289.97657242 0 0 62.13783703ZM1024.55430551 489.40648463L724.36641479 237.49969327999997l-56.81469607-6.95943774 16.83935383 54.53630789 300.22931556 251.92750438 39.9339174-47.59758318z m-12.30329173 111.33029095a31.06891852 31.06891852 0 0 1-43.76575029 3.83183288l-331.04968272-277.75613155a31.06891852 31.06891852 0 0 1-9.7142156-14.64381653l-21.54111642-69.73936616c-13.40105979-43.41363507 17.29503171-79.90925843 62.30353752-74.37899093l72.59770668 8.9064237a31.06891852 31.06891852 0 0 1 16.17654943 7.0422886l331.04968393 277.75613156a31.06891852 31.06891852 0 0 1 3.83183289 43.7864621l-79.88854542 95.19516633z"  horiz-adv-x="1041" />

    
    <glyph glyph-name="weibo" unicode="&#58888;" d="M638.84375 364.875c-25.03125 23.15625-57.375 40.3125-97.59375 51.46875-40.21875 10.6875-82.875 13.875-128.625 9.28125-69.375-7.40625-127.21875-29.25-172.96875-66.75-45.84375-37.125-66.65625-78.84375-61.96875-124.6875 2.8125-30.09375 16.6875-57 41.625-80.25 25.03125-23.15625 57.375-40.3125 97.59375-51.46875 40.21875-11.15625 82.875-14.34375 128.625-9.75 69.375 7.40625 127.21875 29.15625 172.96875 66.75 45.75 37.59375 66.65625 79.3125 61.96875 125.15625-2.71875 30.1875-16.59375 57.09375-41.625 80.25zM532.90625 298.59375c-14.8125 28.3125-39.28125 46.78125-74.0625 56.0625-32.8125 8.8125-65.71875 5.53125-98.53125-8.8125-32.4375-14.34375-55.96875-36.1875-70.78125-65.34375-14.8125-29.71875-15.75-58.875-3.28125-88.03125 12.46875-28.78125 35.625-48.65625 68.90625-59.34375 34.6875-11.625 69.84375-9.75 105 5.53125 35.15625 14.8125 60.1875 38.4375 74.0625 70.5 14.4375 31.5 13.96875 61.125-1.3125 89.4375zM408.875 202.59375c-6.9375-10.6875-16.6875-18.09375-29.625-22.6875-12.46875-4.125-24.09375-3.65625-34.6875 1.40625-10.59375 5.15625-17.53125 12.9375-20.34375 23.625-2.8125 11.15625-0.9375 21.75 6 32.4375 6.46875 10.6875 16.21875 17.625 28.21875 21.75 11.0625 4.03125 23.25 3.84375 34.21875-0.46875 11.0625-4.59375 18.09375-12.5625 21.28125-23.625 3.28125-11.0625 1.40625-21.75-5.0625-32.4375z m43.96875 57c-2.0625-4.40625-6-7.78125-10.6875-9.28125-4.40625-1.40625-9.09375-1.40625-13.40625 0-9.1875 4.59375-11.0625 11.625-6 21.28125 4.6875 8.25 14.53125 12.09375 23.625 9.28125 3.9375-1.59375 7.03125-4.78125 8.34375-8.8125 1.40625-4.03125 0.46875-8.25-1.875-12.46875zM808.71875 337.96875c-10.59375 16.6875-23.15625 29.25-37.5 38.4375-15 9.5625-31.125 16.96875-48.09375 22.21875-3.65625 1.40625-6.46875 2.34375-7.875 2.8125-1.875 1.125-3.75 2.34375-5.53125 3.75-2.34375 1.875-3.28125 3.75-2.34375 6 1.3125 2.90625 2.0625 6.09375 2.34375 9.28125 13.875 36.1875 13.875 63.9375 0 83.90625-14.34375 19.03125-38.4375 28.78125-71.625 28.78125-33.28125 0-71.71875-9.28125-115.21875-27.84375l-2.8125-0.9375c-2.0625-0.9375-4.21875-1.5-6.46875-1.875-2.25-0.84375-4.59375-1.03125-6.9375-0.46875-1.96875 0.1875-3.75 1.40625-4.59375 3.28125-0.9375 1.875-0.9375 5.15625 0.46875 9.28125 14.34375 45.46875 11.0625 78.375-9.1875 98.25-22.6875 23.15625-61.5 24.09375-115.21875 3.28125-54.28125-21.375-107.4375-58.40625-160.21875-111.28125-39.75-40.3125-70.78125-80.625-92.53125-121.5s-32.34375-79.3125-32.34375-115.40625c0-33.84375 10.21875-64.875 30.5625-94.125 20.34375-28.78125 47.15625-52.40625 80.53125-70.96875 32.8125-18.5625 70.78125-32.90625 112.40625-43.59375 42.09375-10.59375 85.3125-15.9375 128.71875-15.75 43.96875 0.46875 86.53125 5.15625 126.75 14.8125 40.6875 9.75 75.84375 22.6875 105.9375 38.90625 28.5 15.09375 55.125 33.5625 79.125 55.125 22.21875 20.4375 39.375 42.1875 50.90625 64.5 11.53125 22.6875 17.15625 44.53125 17.15625 65.8125-0.1875 19.78125-5.8125 38.90625-16.40625 55.3125zM618.5 159.46875c-45.84375-37.59375-103.6875-59.34375-172.96875-66.75-45.84375-4.59375-88.40625-1.40625-128.625 9.75-40.21875 11.15625-72.65625 28.3125-97.59375 51.46875-24.9375 23.15625-38.90625 50.0625-41.625 80.25-4.59375 45.9375 16.21875 87.65625 61.96875 124.6875 45.84375 37.59375 103.6875 59.34375 172.96875 66.75 45.84375 4.59375 88.40625 1.40625 128.625-9.28125 40.21875-11.15625 72.65625-28.3125 97.59375-51.46875 24.9375-23.15625 38.90625-50.0625 41.625-80.25 4.6875-45.84375-16.125-87.5625-61.96875-125.15625zM790.15625 576.28125c12.9375-14.8125 21.75-31.96875 25.40625-51 3.65625-19.03125 2.8125-37.59375-3.28125-55.125-2.34375-7.40625-6.9375-12.5625-13.875-16.21875-6.9375-3.28125-13.875-4.21875-20.8125-1.875-7.03125 2.0625-12.84375 7.125-15.75 13.875-3.28125 6.9375-4.125 13.875-1.875 20.90625 6 19.96875 2.34375 37.125-11.0625 52.40625-13.875 14.8125-30.5625 20.4375-49.96875 16.6875-7.3125-1.59375-14.90625-0.28125-21.28125 3.65625-6.46875 4.21875-10.6875 9.75-11.53125 17.625-1.40625 7.40625-0.46875 14.34375 3.75 20.90625 4.125 6.5625 9.75 10.6875 17.15625 12.09375 37.96875 7.96875 77.34375-4.96875 103.125-33.9375zM874.90625 653.25c27-29.34375 45.1875-65.625 52.78125-104.8125 7.875-39.84375 6-77.4375-6.46875-113.625-2.625-8.0625-8.25-14.90625-15.75-19.03125-7.875-4.125-15.75-4.59375-24.5625-1.875-8.15625 2.625-14.90625 8.4375-18.46875 16.21875-4.125 7.875-4.59375 15.75-2.34375 24.5625 8.8125 25.5 10.21875 52.875 4.59375 81.09375-5.34375 27.75-18.28125 53.4375-37.5 74.15625-19.40625 21.75-42.5625 36.65625-69.375 45-26.15625 8.34375-54.09375 9.75-81 4.21875-8.4375-1.96875-17.34375-0.28125-24.5625 4.59375-7.40625 4.59375-12 11.625-13.875 20.4375s-0.46875 16.6875 4.59375 24.09375c4.5 7.3125 11.90625 12.375 20.4375 13.96875 38.4375 8.34375 76.3125 6.46875 114.28125-5.53125 37.5-12 69.84375-32.90625 97.21875-63.46875z"  horiz-adv-x="1024" />

    


  </font>
</defs>
</svg>
